<?xml version="1.0" standalone="no"?>
<!DOCTYPE svg PUBLIC "-//W3C//DTD SVG 20010904//EN"
 "http://www.w3.org/TR/2001/REC-SVG-20010904/DTD/svg10.dtd">
<svg version="1.0" xmlns="http://www.w3.org/2000/svg"
 width="460.000000pt" height="460.000000pt" viewBox="0 0 460.000000 460.000000"
 preserveAspectRatio="xMidYMid meet">
<metadata>
Created by potrace 1.14, written by Peter Selinger 2001-2017
</metadata>
<g transform="translate(0.000000,460.000000) scale(0.100000,-0.100000)"
fill="#000000" stroke="none">
<path d="M3050 4104 c-120 -14 -244 -38 -299 -56 l-64 -22 -57 -120 c-31 -67
-69 -152 -83 -191 -68 -181 -124 -472 -136 -705 l-6 -125 -134 -22 c-245 -40
-547 -113 -782 -189 -58 -19 -110 -34 -116 -34 -23 0 -107 219 -173 453 -93
325 -147 462 -211 541 -30 35 -34 37 -73 31 -69 -11 -257 -75 -341 -117 -144
-73 -289 -177 -452 -326 l-103 -94 0 -50 c0 -65 34 -232 67 -328 41 -119 129
-287 215 -410 51 -73 75 -116 68 -120 -33 -20 -86 -432 -105 -810 -10 -202 34
-707 67 -759 16 -27 9 -25 218 -60 348 -60 536 -73 905 -68 201 4 381 12 460
21 72 9 256 25 410 36 154 11 296 22 315 25 19 3 150 12 290 20 140 9 314 20
385 25 72 5 172 10 223 10 137 0 128 -17 158 310 8 91 19 190 23 220 5 30 15
156 22 280 12 216 11 231 -11 395 -35 261 -37 339 -10 427 70 233 339 617 533
764 72 54 195 117 267 135 36 9 50 18 50 30 0 57 -214 384 -345 528 -95 105
-300 227 -480 286 -163 53 -255 67 -465 70 -107 2 -211 1 -230 -1z m420 -85
c167 -22 362 -91 513 -179 134 -80 306 -276 448 -512 l49 -82 -72 -26 c-150
-53 -285 -161 -437 -350 -137 -170 -267 -388 -307 -513 -10 -31 -20 -57 -23
-57 -3 0 -19 19 -36 41 -80 109 -228 221 -465 353 -231 129 -430 200 -597 213
l-73 6 0 70 c0 93 34 324 70 474 33 139 81 271 150 419 l48 102 53 11 c234 46
478 57 679 30z m-2515 -449 c44 -69 95 -207 145 -390 69 -251 117 -403 156
-489 19 -41 33 -75 31 -77 -2 -2 -77 -29 -167 -60 -210 -71 -521 -194 -622
-245 l-78 -39 -82 122 c-128 194 -204 369 -241 563 -30 150 -32 141 53 213
163 138 332 257 450 318 40 20 292 115 327 123 2 1 14 -17 28 -39z m1627 -745
c165 -34 312 -95 531 -219 176 -99 292 -183 378 -274 108 -113 131 -176 170
-467 17 -132 20 -188 15 -315 -6 -146 -30 -425 -40 -459 -3 -9 -10 -68 -16
-131 -12 -126 -17 -150 -31 -150 -14 0 -386 165 -721 320 -279 129 -287 133
-283 159 11 61 25 263 25 351 0 131 -36 584 -61 765 -19 144 -64 389 -75 420
-8 19 14 19 108 0z m-159 -67 c3 -24 19 -128 36 -233 45 -283 65 -555 66 -875
0 -151 -4 -300 -8 -330 l-8 -55 -82 -32 c-179 -70 -409 -164 -552 -223 -150
-63 -533 -201 -676 -245 -103 -31 -303 -72 -424 -86 -90 -11 -379 -8 -391 3
-22 23 -54 411 -54 654 0 227 15 400 57 679 l27 180 80 33 c323 134 972 353
1306 442 149 40 390 93 560 123 55 10 57 9 63 -35z m197 -1598 c101 -54 436
-216 687 -331 89 -40 161 -74 160 -75 -1 -1 -81 -3 -177 -6 -195 -6 -193 -1 4
10 l130 7 -130 59 c-237 109 -644 305 -705 341 l-60 35 -52 -27 c-29 -14 -108
-50 -177 -78 -69 -29 -227 -96 -352 -148 -252 -106 -743 -280 -846 -299 l-67
-13 45 -6 c33 -4 21 -6 -45 -7 -105 -1 -106 -1 50 34 66 14 181 47 255 74 74
26 178 62 230 79 103 35 378 145 530 211 52 23 148 64 213 91 65 27 139 60
165 74 26 13 48 24 49 25 1 0 43 -22 93 -50z m463 -427 c-18 -2 -48 -2 -65 0
-18 2 -4 4 32 4 36 0 50 -2 33 -4z m-163 -10 c-36 -2 -182 -12 -326 -23 -144
-11 -281 -19 -305 -19 -24 1 57 10 181 20 313 25 314 25 420 25 58 0 70 -1 30
-3z m-945 -74 c-148 -15 -295 -28 -325 -27 -30 0 33 9 140 19 107 11 231 23
275 28 44 4 103 8 130 8 28 1 -71 -12 -220 -28z m-492 -36 c-62 -2 -165 -2
-230 0 -65 1 -14 3 112 3 127 0 180 -2 118 -3z"/>
<path d="M1998 2302 c-26 -20 -47 -41 -48 -45 0 -5 14 2 30 15 17 13 45 33 62
46 17 12 25 22 17 22 -8 -1 -35 -18 -61 -38z"/>
<path d="M1734 2145 c-119 -28 -276 -85 -282 -102 -7 -23 78 -15 178 16 52 16
122 35 155 42 72 15 95 25 95 43 0 13 -22 27 -38 25 -4 0 -52 -11 -108 -24z"/>
<path d="M2027 2143 c-3 -5 18 -7 46 -5 92 5 104 9 30 11 -39 0 -74 -2 -76 -6z"/>
<path d="M1980 2027 c0 -3 20 -20 45 -37 25 -17 45 -27 45 -23 0 5 -10 14 -22
22 -13 8 -33 21 -45 29 -13 8 -23 12 -23 9z"/>
<path d="M767 2009 c-22 -13 -47 -61 -47 -92 0 -36 36 -75 81 -87 87 -24 161
56 124 133 -9 19 -27 39 -41 46 -31 14 -93 14 -117 0z"/>
<path d="M1462 1898 c-36 -36 9 -162 78 -220 l43 -35 -29 -53 c-49 -90 -132
-151 -235 -170 -59 -11 -209 8 -279 36 -23 9 -43 14 -46 12 -8 -9 110 -66 184
-88 191 -58 372 19 457 195 25 51 27 53 75 57 27 3 60 13 75 22 21 14 24 20
14 37 -8 16 -16 19 -32 14 -12 -4 -50 -9 -85 -12 l-62 -5 -49 49 c-37 36 -51
59 -56 88 -12 74 -15 85 -28 85 -7 0 -18 -5 -25 -12z"/>
</g>
</svg>
